<mxfile host="app.diagrams.net" agent="Mozilla/5.0 (Windows NT 10.0; Win64; x64) AppleWebKit/537.36 (KHTML, like Gecko) Chrome/138.0.0.0 Safari/537.36" version="28.0.3">
  <diagram name="PÃ¡gina-1" id="UV0s4pQ5UyUjIk_f1Xa-">
    <mxGraphModel dx="1090" dy="591" grid="1" gridSize="10" guides="1" tooltips="1" connect="1" arrows="1" fold="1" page="1" pageScale="1" pageWidth="850" pageHeight="1100" math="0" shadow="0">
      <root>
        <mxCell id="0" />
        <mxCell id="1" parent="0" />
        <mxCell id="tCOYVSMCSeWp0OrJvghu-12" value="" style="html=1;align=center;verticalAlign=middle;dashed=0;whiteSpace=wrap;" vertex="1" parent="1">
          <mxGeometry x="280" y="222" width="190" height="330" as="geometry" />
        </mxCell>
        <mxCell id="tCOYVSMCSeWp0OrJvghu-1" value="Empleado&lt;div&gt;&lt;br&gt;&lt;/div&gt;" style="shape=umlActor;verticalLabelPosition=bottom;verticalAlign=top;html=1;outlineConnect=0;" vertex="1" parent="1">
          <mxGeometry x="130" y="85" width="40" height="80" as="geometry" />
        </mxCell>
        <mxCell id="tCOYVSMCSeWp0OrJvghu-21" style="edgeStyle=orthogonalEdgeStyle;rounded=0;orthogonalLoop=1;jettySize=auto;html=1;entryX=0;entryY=0.5;entryDx=0;entryDy=0;" edge="1" parent="1" source="tCOYVSMCSeWp0OrJvghu-3" target="tCOYVSMCSeWp0OrJvghu-14">
          <mxGeometry relative="1" as="geometry" />
        </mxCell>
        <mxCell id="tCOYVSMCSeWp0OrJvghu-22" style="edgeStyle=orthogonalEdgeStyle;rounded=0;orthogonalLoop=1;jettySize=auto;html=1;" edge="1" parent="1" source="tCOYVSMCSeWp0OrJvghu-3" target="tCOYVSMCSeWp0OrJvghu-18">
          <mxGeometry relative="1" as="geometry" />
        </mxCell>
        <mxCell id="tCOYVSMCSeWp0OrJvghu-23" style="edgeStyle=orthogonalEdgeStyle;rounded=0;orthogonalLoop=1;jettySize=auto;html=1;entryX=0;entryY=0.5;entryDx=0;entryDy=0;" edge="1" parent="1" source="tCOYVSMCSeWp0OrJvghu-3" target="tCOYVSMCSeWp0OrJvghu-20">
          <mxGeometry relative="1" as="geometry" />
        </mxCell>
        <mxCell id="tCOYVSMCSeWp0OrJvghu-3" value="Administrador" style="shape=umlActor;verticalLabelPosition=bottom;verticalAlign=top;html=1;outlineConnect=0;" vertex="1" parent="1">
          <mxGeometry x="130" y="282" width="40" height="80" as="geometry" />
        </mxCell>
        <mxCell id="tCOYVSMCSeWp0OrJvghu-9" value="" style="html=1;align=center;verticalAlign=middle;dashed=0;whiteSpace=wrap;" vertex="1" parent="1">
          <mxGeometry x="280" y="30" width="190" height="180" as="geometry" />
        </mxCell>
        <mxCell id="tCOYVSMCSeWp0OrJvghu-10" value="AppAsistencia" style="text;html=1;align=center;verticalAlign=middle;resizable=0;points=[];autosize=1;strokeColor=none;fillColor=none;" vertex="1" parent="1">
          <mxGeometry x="325" y="30" width="100" height="30" as="geometry" />
        </mxCell>
        <mxCell id="tCOYVSMCSeWp0OrJvghu-11" value="Registrar Asistencia" style="ellipse;whiteSpace=wrap;html=1;" vertex="1" parent="1">
          <mxGeometry x="305" y="90" width="140" height="70" as="geometry" />
        </mxCell>
        <mxCell id="tCOYVSMCSeWp0OrJvghu-6" style="edgeStyle=orthogonalEdgeStyle;rounded=0;orthogonalLoop=1;jettySize=auto;html=1;entryX=0;entryY=0.5;entryDx=0;entryDy=0;" edge="1" parent="1" source="tCOYVSMCSeWp0OrJvghu-1" target="tCOYVSMCSeWp0OrJvghu-11">
          <mxGeometry relative="1" as="geometry">
            <mxPoint x="260" y="130" as="targetPoint" />
          </mxGeometry>
        </mxCell>
        <mxCell id="tCOYVSMCSeWp0OrJvghu-13" value="AppWebAdminAsistens" style="text;html=1;align=center;verticalAlign=middle;resizable=0;points=[];autosize=1;strokeColor=none;fillColor=none;" vertex="1" parent="1">
          <mxGeometry x="301" y="223" width="150" height="30" as="geometry" />
        </mxCell>
        <mxCell id="tCOYVSMCSeWp0OrJvghu-14" value="Programar Horario" style="ellipse;whiteSpace=wrap;html=1;" vertex="1" parent="1">
          <mxGeometry x="305" y="262" width="140" height="70" as="geometry" />
        </mxCell>
        <mxCell id="tCOYVSMCSeWp0OrJvghu-18" value="Mantener Registro Empleado" style="ellipse;whiteSpace=wrap;html=1;" vertex="1" parent="1">
          <mxGeometry x="300" y="342" width="140" height="70" as="geometry" />
        </mxCell>
        <mxCell id="tCOYVSMCSeWp0OrJvghu-24" style="edgeStyle=orthogonalEdgeStyle;rounded=0;orthogonalLoop=1;jettySize=auto;html=1;" edge="1" parent="1" source="tCOYVSMCSeWp0OrJvghu-19" target="tCOYVSMCSeWp0OrJvghu-18">
          <mxGeometry relative="1" as="geometry" />
        </mxCell>
        <mxCell id="tCOYVSMCSeWp0OrJvghu-19" value="&lt;div&gt;&lt;font style=&quot;font-size: 10px;&quot;&gt;El caso de uso que describe los escenarios&lt;/font&gt;&lt;/div&gt;&lt;div&gt;&lt;font style=&quot;font-size: 10px;&quot;&gt;1.-Crear nuevo Empleado&lt;/font&gt;&lt;/div&gt;&lt;div&gt;&lt;font style=&quot;font-size: 10px;&quot;&gt;2.-Editar Empleado&lt;/font&gt;&lt;/div&gt;&lt;div&gt;&lt;font style=&quot;font-size: 10px;&quot;&gt;3.-Eliminar Empleado&lt;/font&gt;&lt;/div&gt;&lt;div&gt;&lt;font style=&quot;font-size: 10px;&quot;&gt;4.-Mostrar Empleado&lt;/font&gt;&lt;/div&gt;&lt;div&gt;&lt;br&gt;&lt;/div&gt;" style="shape=note;whiteSpace=wrap;html=1;backgroundOutline=1;darkOpacity=0.05;align=left;" vertex="1" parent="1">
          <mxGeometry x="510" y="352" width="170" height="110" as="geometry" />
        </mxCell>
        <mxCell id="tCOYVSMCSeWp0OrJvghu-20" value="Generar Informe" style="ellipse;whiteSpace=wrap;html=1;" vertex="1" parent="1">
          <mxGeometry x="305" y="422" width="140" height="70" as="geometry" />
        </mxCell>
      </root>
    </mxGraphModel>
  </diagram>
</mxfile>
